<svg width="652" height="652" viewBox="0 0 652 652" fill="none"
    xmlns="http://www.w3.org/2000/svg">
    <rect width="652" height="652" fill="white" />
    <path
        d="M355.4 360.9C357.2 365.1 359.9 367.9 364.8 367.9H365.4C370.3 367.9 373 365.2 374.8 360.9L461.6 162.4C462.2 161.2 462.2 160.6 462.2 159.4C462.2 155.8 458.9 152.1 454.6 152.1C451 152.1 448.2 154.8 446.7 158.2L365.4 348.8L284.4 158.5C282.9 154.8 280.2 152.1 276.2 152.1C271.6 152.1 268.3 156 268.3 159.7C268.3 161.2 268.3 161.8 268.9 163L355.4 360.9Z"
        fill="#E94A08" />
    <path
        d="M127.1 159.1C125.3 154.9 122.6 152.1 117.7 152.1H117.1C112.2 152.1 109.5 154.8 107.7 159.1L20.9 357.6C20.3 358.8 20.3 359.4 20.3 360.6C20.3 364.2 23.6 367.9 27.9 367.9C31.6 367.9 34.3 365.2 35.8 361.8L117.1 171.2L198.1 361.5C199.6 365.1 202.3 367.9 206.3 367.9C210.9 367.9 214.2 364 214.2 360.3C214.2 358.8 214.2 358.2 213.6 356.9L127.1 159.1Z"
        fill="#E94A08" />
    <path
        d="M577 152.1C572.8 152.1 569.1 155.7 569.1 160V359.1C569.1 363.3 572.8 367 577 367C581.2 367 584.9 363.3 584.9 359.1V160C584.9 155.7 581.2 152.1 577 152.1Z"
        fill="#E94A08" />
    <path
        d="M21.6 438.9C21.6 437.8 22.5 436.9 23.6 436.9H24.2C25 436.9 25.7 437.4 26.2 438.1L62.6 484.3V438.8C62.6 437.7 63.4 436.9 64.5 436.9C65.6 436.9 66.4 437.7 66.4 438.8V489.7C66.4 490.6 65.7 491.4 64.8 491.4H64.5C63.7 491.4 63.1 490.9 62.5 490.1L25.4 443V489.5C25.4 490.6 24.6 491.4 23.5 491.4C22.4 491.4 21.6 490.6 21.6 489.5V438.9Z"
        fill="#2B292B" />
    <path
        d="M142.6 469.6C142.1 461.6 137.5 454.3 128.5 454.3C120.7 454.3 114.7 460.9 114 469.6H142.6ZM129.2 492.1C118.9 492.1 109.9 483.8 109.9 471.6V471.5C109.9 460.1 117.9 451 128.6 451C139.6 451 146.7 460.1 146.7 471.4C146.7 472.3 145.8 473.2 144.8 473.2H113.9C114.6 483 121.6 488.7 129.3 488.7C134.9 488.7 138.9 486.4 142 483.3C142.3 483 142.7 482.8 143.2 482.8C144.2 482.8 145.1 483.6 145.1 484.6C145.1 485 144.9 485.4 144.5 485.9C140.7 489.5 136.3 492.1 129.2 492.1Z"
        fill="#2B292B" />
    <path
        d="M190.7 481V455.2H186.5C185.6 455.2 184.7 454.4 184.7 453.4C184.7 452.5 185.5 451.7 186.5 451.7H190.7V440.7C190.7 439.6 191.5 438.8 192.6 438.8C193.7 438.8 194.5 439.6 194.5 440.7V451.7H206.8C207.7 451.7 208.6 452.5 208.6 453.5C208.6 454.4 207.7 455.2 206.8 455.2H194.5V480.6C194.5 486.2 197.8 488.2 202.4 488.2C205.1 488.2 206.3 487.4 206.9 487.4C207.8 487.4 208.6 488.2 208.6 489.1C208.6 489.9 208.1 490.4 207.4 490.7C205.9 491.2 204.1 491.7 201.8 491.7C195.6 491.8 190.7 488.5 190.7 481Z"
        fill="#2B292B" />
    <path
        d="M260.8 490L248 454.6C247.9 454.2 247.7 453.8 247.7 453.4C247.7 452.4 248.6 451.6 249.7 451.6C250.8 451.6 251.4 452.3 251.7 453.2L263.1 486.5L274.5 453.1C274.8 452.2 275.4 451.6 276.4 451.6H276.5C277.6 451.6 278.1 452.2 278.4 453.1L289.8 486.5L301.3 453.1C301.5 452.3 302.1 451.6 303.2 451.6C304.3 451.6 305.1 452.4 305.1 453.4C305.1 453.9 305 454.3 304.8 454.7L291.9 490C291.5 491.1 290.7 491.7 289.8 491.7H289.7C288.7 491.7 288 491.1 287.6 489.9L276.4 457.7L265.1 489.9C264.7 491.1 264 491.7 263 491.7H262.9C262 491.7 261.2 491.1 260.8 490Z"
        fill="#2B292B" />
    <path
        d="M379.4 471.6V471.4C379.4 461.9 372.3 454.4 363.2 454.4C353.9 454.4 347.1 462 347.1 471.3V471.4C347.1 480.9 354.2 488.5 363.3 488.5C372.7 488.5 379.4 480.9 379.4 471.6ZM343.1 471.6V471.4C343.1 460.4 351.7 450.8 363.4 450.8C375.1 450.8 383.5 460.2 383.5 471.3V471.4C383.5 482.4 374.9 492 363.2 492C351.6 492.1 343.1 482.7 343.1 471.6Z"
        fill="#2B292B" />
    <path
        d="M426.1 453.4C426.1 452.3 426.9 451.5 427.9 451.5C429 451.5 429.8 452.3 429.8 453.4V463C433.2 455.4 440.1 451.2 445.6 451.2C446.8 451.2 447.6 452.1 447.6 453.3C447.6 454.4 446.8 455.3 445.6 455.4C437.3 456.2 429.8 462.4 429.8 475.1V489.6C429.8 490.7 429 491.5 428 491.5C426.9 491.5 426.1 490.7 426.1 489.6V453.4Z"
        fill="#2B292B" />
    <path
        d="M487.9 436.4C487.9 435.3 488.7 434.5 489.7 434.5C490.8 434.5 491.6 435.4 491.6 436.4V477L515.7 452C516.1 451.6 516.5 451.5 517 451.5C518 451.5 518.8 452.3 518.8 453.3C518.8 453.8 518.7 454.1 518.2 454.6L503.8 469.3L519.2 488.4C519.6 488.9 519.7 489.3 519.7 489.8C519.7 490.9 518.9 491.6 517.9 491.6C517.2 491.6 516.8 491.4 516.3 490.7L501.2 472L491.6 481.6V489.6C491.6 490.8 490.8 491.5 489.8 491.5C488.7 491.5 487.9 490.7 487.9 489.6V436.4Z"
        fill="#2B292B" />
    <path
        d="M559.4 486.8C559.1 486.6 558.7 485.9 558.7 485.3C558.7 484.3 559.6 483.4 560.5 483.4C561 483.4 561.4 483.6 561.7 483.8C565.8 486.7 570.1 488.3 574.8 488.3C580.1 488.3 584.3 485.4 584.3 480.8V480.7C584.3 476.1 579.4 474.4 573.9 472.8C567.5 471 560.4 469 560.4 462V461.8C560.4 455.5 565.7 450.9 573.4 450.9C577.6 450.9 582.4 452.3 586.1 454.4C586.6 454.7 587.1 455.3 587.1 456.1C587.1 457.1 586.2 457.9 585.2 457.9C584.7 457.9 584.4 457.8 584.1 457.6C580.7 455.6 576.9 454.4 573.2 454.4C567.8 454.4 564.2 457.3 564.2 461.3V461.4C564.2 465.8 569.5 467.4 575.2 469.1C581.5 470.9 588.1 473.2 588.1 480.1V480.2C588.1 487.2 582.1 491.7 574.5 491.7C569.4 491.9 563.5 489.8 559.4 486.8Z"
        fill="#2B292B" />
    <path
        d="M611.6 447C612.8 447 613.6 446.7 613.6 445.4C613.6 444 612.1 444.1 611.1 444.1H608.7V447H611.6ZM615.3 453.1H612.7L610.3 448.6H608.5V453.1H606.3V442.5H611.4C614.2 442.5 615.5 443.3 615.5 445.8C615.5 447.8 614.5 448.6 612.6 448.7L615.3 453.1ZM617.7 447.7C617.7 443.3 614.7 440.2 610.5 440.2C606.2 440.2 603.2 443.3 603.2 447.7C603.2 452.1 606.2 455.2 610.5 455.2C614.7 455.2 617.7 452.1 617.7 447.7ZM600.6 447.7C600.6 442.3 605 437.8 610.5 437.8C615.9 437.8 620.4 442.2 620.4 447.7C620.4 453.1 616 457.5 610.5 457.5C605 457.5 600.6 453.1 600.6 447.7Z"
        fill="#2B292B" />
</svg>