<svg xmlns="http://www.w3.org/2000/svg" fill="none" viewBox="0 0 64 64" id="Argo-Icon--Streamline-Svg-Logos" height="64" width="64">
  <desc>
    Argo Icon Streamline Icon: https://streamlinehq.com
  </desc>
  <path fill="#fefefe" d="M28.538199999999996 51.48866666666667c0.005333333333333333 0 0.010799999999999999 0.016133333333333333 0.010799999999999999 0.04853333333333333 0.005333333333333333 0.2265333333333333 0.010733333333333333 0.4477333333333333 0.016133333333333333 0.6743333333333333 0.0324 -0.17266666666666666 0.06473333333333334 -0.34526666666666667 0.10253333333333332 -0.5232666666666667 -0.027 -0.32913333333333333 -0.2859333333333333 -0.16186666666666666 -0.12946666666666667 -0.1996Z" stroke-width="0.6667"></path>
  <path fill="#fefefe" d="M42.6936 33.03973333333333c-0.005533333333333333 0.0054666666666666665 -0.01653333333333333 0.0054666666666666665 -0.022066666666666665 0.011 0.005533333333333333 0.0054666666666666665 0.01653333333333333 0.011 0.022066666666666665 0.01653333333333333 -0.005533333333333333 -0.0054666666666666665 0 -0.01653333333333333 0 -0.027533333333333333Z" stroke-width="0.6667"></path>
  <path fill="#fefefe" d="M33.776066666666665 10.393866666666666v0.0054666666666666665h0.01653333333333333c-0.005533333333333333 0 -0.011066666666666666 -0.0054666666666666665 -0.01653333333333333 -0.0054666666666666665Z" stroke-width="0.6667"></path>
  <path fill="#fe733e" d="M41.355466666666665 55.87493333333333c0.07013333333333333 -0.7822 0.03233333333333333 -1.5752 0.12946666666666667 -2.352 0.21573333333333333 -1.71 0.010799999999999999 -3.4577999999999998 0.4585333333333333 -5.1462666666666665 0.22113333333333332 -0.8739333333333332 -0.48553333333333326 -1.8988666666666667 0.4207333333333333 -2.6648666666666667l-0.2265333333333333 -0.7444666666666666c-0.19386666666666666 -0.3932 -0.1838 -0.8562666666666666 0.02693333333333333 -1.2407333333333332 -0.0532 -1.4993999999999998 0.03713333333333333 -3.0005333333333333 0.2697333333333333 -4.482733333333333 0.08093333333333333 -2.0607333333333333 0.16720000000000002 -4.1213999999999995 0.24813333333333332 -6.1874666666666664 -0.005333333333333333 -0.005399999999999999 -0.0162 -0.010799999999999999 -0.021533333333333335 -0.0162 -4.407266666666667 2.0229333333333335 -8.561 -0.8091333333333333 -9.267666666666667 -4.207666666666666 -0.4639333333333333 -2.2333333333333334 -0.2158 -4.342533333333333 1.5265999999999997 -6.047133333333333 0.2912666666666667 -0.2859333333333333 0.5394666666666666 -0.615 0.8091999999999999 -0.9278666666666666 0.7120666666666666 -4.2669999999999995 0.21573333333333333 -8.183399999999999 -3.430933333333333 -11.236666666666666 0.5448666666666666 -0.3128666666666666 1.0357333333333334 -0.13486666666666666 1.4781333333333333 -0.21573333333333333v-0.005333333333333333c-4.4719999999999995 -1.1220666666666665 -9.898866666666667 1.9365999999999999 -11.6952 6.6082 -0.5586 1.3804666666666665 -0.8108 2.8658 -0.739 4.3533333333333335 4.4342 -2.0553333333333335 8.409933333333333 0.3992 9.504999999999999 4.137533333333333 1.1381999999999999 3.8894 -1.8934666666666664 8.005333333333333 -5.923133333333333 8.064666666666666 -1.1538 0.005599999999999999 -2.301733333333333 -0.1654 -3.4038666666666666 -0.5070666666666667 0.08093333333333333 2.147 0.16366666666666665 4.294 0.24813333333333332 6.441 0.1976 1.4006666666666665 0.2824 2.815 0.25353333333333333 4.229266666666666 0.010799999999999999 0.3344666666666667 0.021599999999999998 0.6688666666666667 0.0324 1.0033333333333332 -0.010799999999999999 0.22119999999999998 -0.021599999999999998 0.4423333333333333 -0.0324 0.6689333333333334 0.2805333333333333 1.3558 0.4483333333333333 2.7324666666666664 0.5017333333333334 4.1159333333333326 -0.0098 -0.0354 -0.016999999999999998 -0.07139999999999999 -0.021599999999999998 -0.10786666666666667 0.005399999999999999 0.0378 0.0162 0.07013333333333333 0.021599999999999998 0.10786666666666667 0.10786666666666667 2.3465999999999996 0.1726 4.6986 0.3398 7.0451999999999995 0.07013333333333333 0.9709999999999999 -0.28046666666666664 1.4564666666666666 -1.176 1.7046666666666666 -1.0572666666666666 0.29666666666666663 -2.0984 0.6526666666666666 -3.144933333333333 0.9871333333333332 1.3809333333333333 0.17366666666666666 2.7736666666666663 0.235 4.164466666666666 0.1834 1.4942666666666666 -0.03233333333333333 2.174 -0.6958666666666666 2.3196666666666665 -2.179333333333333 0.09166666666666667 -0.944 0.1726 -1.8880666666666666 0.25893333333333335 -2.8320666666666665 0.09706666666666666 -1.7100666666666666 0.19419999999999998 -3.425466666666667 0.2912666666666667 -5.135533333333333h0.21039999999999998v4.882c0.02693333333333333 0.739 0.03773333333333333 1.4834666666666667 0.08626666666666666 2.2224666666666666 0.2158 3.4470666666666667 0.31826666666666664 3.425533333333333 -3.1179333333333332 4.1213999999999995 -0.07873333333333332 0.024466666666666668 -0.1546 0.057 -0.22659999999999997 0.09706666666666666 0.205 0.13486666666666666 0.41 0.2697333333333333 0.615 0.41 0.063 0.010199999999999999 0.11826666666666666 0.04766666666666666 0.151 0.10246666666666666 0.8199333333333333 0.005399999999999999 1.6453333333333333 0.07553333333333333 2.454466666666667 0 1.4727333333333332 -0.14026666666666665 2.1685999999999996 -0.9278 2.2764666666666664 -2.389733333333333 0.06473333333333334 -0.9385999999999999 0.16186666666666666 -1.8772666666666666 0.24280000000000002 -2.8158666666666665 -0.08393333333333333 -1.2393333333333332 0.014266666666666665 -2.4843333333333333 0.2912666666666667 -3.6952 -0.005399999999999999 -0.22659999999999997 -0.010799999999999999 -0.4477333333333333 -0.0162 -0.6743333333333333 0 -0.03233333333333333 -0.010799999999999999 -0.05393333333333333 -0.010799999999999999 -0.04853333333333333 -0.15639999999999998 0.03773333333333333 0.10253333333333332 -0.12946666666666667 0.12946666666666667 0.1996 0.027 -0.14566666666666667 0.05933333333333333 -0.2912666666666667 0.08633333333333333 -0.4369333333333333v5.653333333333333c0.0162 0.6635333333333333 0.03773333333333333 1.3216666666666665 0.04853333333333333 1.9851999999999999 0.027 2.400533333333333 -0.12406666666666666 2.6162666666666663 -2.4113333333333333 3.3013999999999997 -0.6311333333333333 0.1888 -1.2892666666666666 0.30206666666666665 -1.915 0.5124666666666666 -0.4531333333333333 0.15639999999999998 -1.0303333333333333 0.07013333333333333 -1.4565333333333332 0.6042 1.8611333333333333 -0.07013333333333333 3.6035333333333335 0.1402 5.335133333333333 -0.14026666666666665 1.7909333333333333 -0.29133333333333333 2.503 -1.0142 2.869866666666667 -2.7619999999999996 0.2697333333333333 -1.2838666666666665 0.383 -2.6055333333333333 0.8738666666666666 -3.905533333333333 0.05566666666666667 0.0888 0.1026 0.18273333333333333 0.14026666666666665 0.28046666666666664 0.24813333333333332 1.2137333333333333 0.49626666666666663 2.432933333333333 0.7336666666666667 3.6466666666666665 0.3344666666666667 1.6992666666666667 1.0249333333333333 2.422066666666667 2.7511333333333328 2.7241999999999997 1.7855999999999999 0.30746666666666667 3.5927333333333333 0.09706666666666666 5.443 0.14026666666666665 -0.2643333333333333 -0.4531333333333333 -0.6796666666666666 -0.37766666666666665 -1.0141333333333333 -0.4747333333333333 -1.149 -0.3344666666666667 -2.3196 -0.6203333333333333 -3.4470666666666667 -1.0087333333333333 -0.8199333333333333 -0.2859333333333333 -1.4079333333333333 -0.8091999999999999 -1.3971333333333331 -1.8179333333333334 0.02693333333333333 -2.7619999999999996 0.010799999999999999 -5.523933333333333 0.010799999999999999 -8.285866666666667h0.33440000000000003c0.11873333333333333 1.7315999999999998 0.259 3.4577999999999998 0.3506666666666667 5.189466666666666 0.21039999999999998 4.002666666666666 0.6850666666666667 4.4395999999999995 4.7039333333333335 4.2184 0.22659999999999997 -0.3776 0.7822 -0.08086666666666667 0.9925999999999999 -0.4854666666666666 -0.9655999999999999 -0.005399999999999999 -1.8071333333333333 -0.46933333333333327 -2.6918666666666664 -0.7660666666666667 -0.49066666666666664 -0.16886666666666666 -0.8054666666666666 -0.6477333333333333 -0.766 -1.1651333333333334 0.04313333333333333 -2.8375333333333335 -0.06473333333333334 -5.6858 0.31826666666666664 -8.512466666666667 0.23199999999999998 2.373533333333333 0.4154 4.752533333333333 0.5988 7.1260666666666665 0.08626666666666666 1.1112666666666666 0.588 1.9797333333333331 1.7531999999999999 2.0552666666666664 1.575133333333333 0.10793333333333333 3.155733333333333 0.027 4.736333333333333 0.027 -0.8218666666666665 -0.3814666666666667 -1.6734 -0.6953999999999999 -2.5462 -0.9386666666666665 -1.9311999999999998 -0.6203333333333333 -1.9203333333333332 -0.6257999999999999 -1.7423333333333333 -2.5894ZM29.20713333333333 15.4004c-0.007266666666666666 0.7893999999999999 -0.6454666666666666 1.4276666666666666 -1.4349333333333334 1.4348666666666665 -0.8469333333333333 0.0162 -1.4834666666666667 -0.4692666666666666 -1.4996 -1.5697333333333332 0.007333333333333332 -0.3816 0.17073333333333332 -0.7434666666666666 0.45206666666666667 -1.0013333333333332 0.2813333333333333 -0.25793333333333335 0.6559999999999999 -0.38926666666666665 1.0368 -0.36346666666666666 1.0087333333333333 -0.0162 1.4618666666666666 0.6634666666666666 1.4456666666666664 1.4996666666666665Zm6.484133333333333 23.595266666666664c0.005399999999999999 2.1848 -1.6668666666666667 4.0889999999999995 -3.576533333333333 4.083666666666666 -1.8017333333333332 -0.005399999999999999 -3.6412 -2.1308666666666665 -3.5764666666666667 -4.1376 -0.09713333333333332 -0.5933999999999999 -0.1996 -1.1921333333333333 -0.3344666666666667 -2.0229333333333335 1.2892666666666666 0.8793333333333333 2.373533333333333 1.7802 3.8246666666666664 1.8126 1.4834666666666667 0.02693333333333333 2.6486666666666663 -0.7336666666666667 3.8623999999999996 -1.6237333333333333 0.25893333333333335 0.7120666666666666 -0.3938 1.2676666666666665 -0.1996 1.888Z" stroke-width="0.6667"></path>
  <path fill="#b5d2f3" d="M22.027199999999997 43.7208c-0.10793333333333333 -0.03773333333333333 -0.21039999999999998 -0.08626666666666666 -0.3129333333333333 -0.12406666666666666 -1.4461333333333333 -0.6319333333333332 -2.7784 -1.4976666666666667 -3.9433333333333334 -2.562333333333333C13.4878 37.3338 10.661066666666667 32.699999999999996 9.975999999999999 27.07893333333333c-0.7768666666666666 -6.3870000000000005 0.6526666666666666 -12.283133333333334 4.914333333333333 -17.348533333333332C18.779733333333333 5.112746666666666 23.7372 2.4209199999999997 29.654933333333332 1.80056c6.575799999999999 -0.6850999999999999 12.482733333333332 1.1544066666666666 17.4564 5.696573333333333 4.060533333333333 3.6047999999999996 6.6255999999999995 8.598266666666666 7.190799999999999 13.9986 0.5828 4.635266666666666 -0.37839999999999996 9.333466666666666 -2.734933333333333 13.3674 -2.195533333333333 3.7491333333333334 -5.1193333333333335 6.7916 -9.073466666666667 8.717466666666667 -0.10793333333333333 0.05393333333333333 -0.2158 0.10786666666666667 -0.32366666666666666 0.15639999999999998 -0.21346666666666664 0.3837333333333333 -0.2235333333333333 0.8481333333333333 -0.027 1.2407333333333332 0.08439999999999999 -0.09086666666666667 0.17846666666666666 -0.17226666666666668 0.2805333333333333 -0.2427333333333333 5.971666666666666 -3.161133333333333 10.1146 -7.859733333333333 12.051199999999998 -14.397799999999998 0.16720000000000002 -0.5556 0.4261333333333333 -0.8307333333333333 1.0465333333333333 -0.766 0.8415333333333332 0.08626666666666666 1.0680666666666667 -0.4747333333333333 1.0680666666666667 -1.176 0.005333333333333333 -2.6918666666666664 0.007133333333333333 -5.381866666666667 0.005333333333333333 -8.070133333333333 0 -0.5771999999999999 -0.14026666666666665 -1.2137333333333333 -0.7390666666666666 -1.2784666666666666 -1.1004666666666667 -0.12946666666666667 -1.2353333333333332 -0.9332666666666666 -1.4564666666666666 -1.7154666666666665 -1.2174666666666667 -4.4585333333333335 -3.843933333333333 -8.403866666666666 -7.4875333333333325 -11.24738C39.30553333333333 0.11209266666666667 30.954933333333333 -0.9667933333333334 22.194333333333333 3.0682599999999995 15.6832 6.062173333333334 11.534866666666666 11.257 9.657599999999999 18.210466666666665c-0.11866666666666666 0.4316 -0.06473333333333334 0.9440666666666666 -0.7983333333333333 0.7929999999999999 -1.0465333333333333 -0.2158 -1.4403333333333332 0.3992 -1.4457333333333333 1.327 -0.0162 2.6918666666666664 -0.005399999999999999 5.378266666666666 -0.005399999999999999 8.070133333333333 0 0.8954666666666666 0.4531333333333333 1.3701999999999999 1.3162666666666665 1.1598 0.7929999999999999 -0.19419999999999998 0.9817999999999999 0.1996 1.1436 0.8038 0.7013333333333334 2.5574 1.8739999999999999 4.961399999999999 3.4578666666666664 7.088266666666667 2.3196 3.145 5.146333333333333 5.6696 8.738999999999999 7.277133333333333 -0.010799999999999999 -0.3344666666666667 -0.021533333333333335 -0.6743333333333333 -0.03766666666666667 -1.0088Z" stroke-width="0.6667"></path>
  <path fill="#fe684b" d="M22.033 45.39293333333333c-0.7983333333333333 2.2386666666666666 -2.9238 2.184733333333333 -4.730933333333333 2.745733333333333 1.3594 0.3506666666666667 2.7403999999999997 0.7552 4.0998 0.5232666666666667 0.8091333333333333 -0.14026666666666665 0.9655999999999999 0.15106666666666665 1.0842666666666667 0.6311333333333333 0.010799999999999999 0.0378 0.0162 0.07553333333333333 0.027 0.11333333333333334 0.005333333333333333 0.03233333333333333 0.0162 0.07013333333333333 0.021599999999999998 0.10786666666666667 -0.0534 -1.3852666666666666 -0.22119999999999998 -2.763733333333333 -0.5017333333333334 -4.121333333333333Z" stroke-width="0.6667"></path>
  <path fill="#fe6446" d="M41.9434 48.38199999999999c1.7262666666666666 0.7822 3.3554 -0.005399999999999999 5.022266666666667 -0.23199999999999998 -1.6291333333333333 -0.6904666666666667 -3.7383333333333333 -0.33440000000000003 -4.596066666666666 -2.4328666666666665 -0.9116666666666666 0.766 -0.205 1.7909333333333333 -0.42619999999999997 2.6648666666666667Z" stroke-width="0.6667"></path>
  <path fill="#fed6c8" d="M28.7542 51.251599999999996c-0.02693333333333333 0.14566666666666667 -0.05933333333333333 0.29133333333333333 -0.08626666666666666 0.43699999999999994 -0.0324 0.1726 -0.07013333333333333 0.3452 -0.10253333333333332 0.5232666666666667 -0.27699999999999997 1.2108666666666665 -0.3751333333333333 2.4558 -0.2912666666666667 3.6952 0.40459999999999996 0.21033333333333332 0.10786666666666667 0.766 0.4801333333333333 0.9925333333333333l-0.00006666666666666667 -5.648Z" stroke-width="0.6667"></path>
  <path fill="#feebe3" d="M25.5872 49.276999999999994c-0.09713333333333332 1.7100666666666666 -0.19419999999999998 3.425466666666667 -0.29133333333333333 5.135533333333333 0.16726666666666667 -0.08633333333333333 0.3344666666666667 -0.16720000000000002 0.5017333333333334 -0.25353333333333333v-4.882h-0.21039999999999998Z" stroke-width="0.6667"></path>
  <path fill="#fe9166" d="M20.516266666666667 61.112399999999994h2.783533333333333c-0.04853333333333333 -0.0324 -0.10246666666666666 -0.06473333333333334 -0.15106666666666665 -0.10253333333333332 -0.20493333333333333 -0.13486666666666666 -0.4099333333333333 -0.2697333333333333 -0.6149333333333333 -0.4099333333333333 -0.7066 -0.0156 -1.4040666666666666 0.1615333333333333 -2.017533333333333 0.5124666666666666Z" stroke-width="0.6667"></path>
  <path fill="#fe8f64" d="M40.702799999999996 61.11286666666667h2.708c-0.49553333333333327 -0.3614 -1.1039999999999999 -0.5336 -1.7154 -0.4854666666666666 -0.21039999999999998 0.4099333333333333 -0.7714 0.10786666666666667 -0.9925999999999999 0.4854666666666666Z" stroke-width="0.6667"></path>
  <path fill="#e2f5fc" d="M42.498933333333326 43.5754c3.954133333333333 -1.9203999999999999 6.872533333333333 -4.962866666666667 9.073466666666667 -8.7174 2.356533333333333 -4.033933333333334 3.3178 -8.732133333333334 2.735 -13.367466666666667 -0.5605333333333333 -5.4016666666666655 -3.1264000000000003 -10.396799999999999 -7.190799999999999 -13.9986 -4.9736666666666665 -4.53672 -10.880600000000001 -6.38162 -17.456466666666664 -5.691133333333333 -5.912266666666666 0.6149666666666667 -10.8752 3.3121866666666664 -14.764599999999998 7.929866666666666 -4.2669999999999995 5.065333333333333 -5.691133333333333 10.961466666666666 -4.914333333333333 17.348533333333332 0.6850666666666667 5.6264 3.5117999999999996 10.2548 7.795 13.9554 1.1653333333333333 1.0642 2.497533333333333 1.9297999999999997 3.9433333333333334 2.5624 0.10246666666666666 0.04313333333333333 0.205 0.08633333333333333 0.3128666666666666 0.12406666666666666 0.0288 -1.4142666666666666 -0.055933333333333335 -2.828533333333333 -0.25353333333333333 -4.229266666666666 -0.10786666666666667 -0.07553333333333333 -0.2158 -0.15106666666666665 -0.32366666666666666 -0.23193333333333332 -1.067 -0.8252666666666666 -2.0630666666666664 -1.7382666666666666 -2.977733333333333 -2.7296 -0.2859333333333333 -0.2912666666666667 -0.6419333333333332 -0.5394666666666666 -0.6419333333333332 -1.0142 -0.6365333333333333 0.4585333333333333 -1.0950666666666666 0.14026666666666665 -1.4673333333333334 -0.3668 -2.0892666666666666 -2.741 -3.3053999999999997 -6.047333333333333 -3.4901999999999997 -9.488866666666667 -0.151 -3.1179333333333332 0.12946666666666667 -6.149666666666667 1.4403333333333332 -9.068066666666667 1.6013333333333333 -3.6047999999999996 4.281466666666667 -6.624199999999999 7.670933333333332 -8.641866666666665 0.5826 -0.35606666666666664 0.9170666666666666 -0.03773333333333333 1.3215999999999999 0.2265333333333333 0.3883333333333333 -0.015266666666666666 0.7515333333333333 -0.19586666666666666 0.998 -0.49626666666666663l-0.04853333333333333 -0.11326666666666665c-0.34526666666666667 -0.7282666666666666 -0.36146666666666666 -1.5536199999999998 0.4692666666666666 -1.74782 0.8361333333333333 -0.1996 1.3108666666666666 0.4801066666666667 1.3162666666666665 1.35942 6.2414 -2.0499066666666668 12.0458 -1.2191666666666667 17.2838 2.7781333333333333 3.9164 2.9885333333333333 6.160466666666666 6.996599999999999 6.845599999999999 11.883933333333333 0.8846666666666666 6.284599999999999 -1.2407333333333332 11.4956 -5.621066666666666 15.902866666666664 -0.5169333333333332 0.5302666666666667 -1.1095333333333333 0.9810666666666666 -1.7585333333333333 1.3377999999999999 -0.11326666666666665 0.059399999999999994 -0.22659999999999997 0.11333333333333334 -0.33986666666666665 0.16726666666666667 -0.23259999999999997 1.4822666666666664 -0.3229333333333333 2.983333333333333 -0.2697333333333333 4.482799999999999 0.09706666666666666 -0.04853333333333333 0.1996 -0.10253333333333332 0.3128666666666666 -0.15646666666666664Z" stroke-width="0.6667"></path>
  <path fill="#cdecf6" d="M44.543800000000005 37.748866666666665c4.374933333333333 -4.407266666666667 6.500333333333334 -9.618266666666667 5.621066666666666 -15.902866666666664 -0.6851333333333334 -4.892733333333333 -2.9292 -8.9008 -6.845599999999999 -11.883933333333333 -5.2379999999999995 -3.9972933333333334 -11.047799999999999 -4.8226466666666665 -17.2838 -2.7781333333333333 -0.010799999999999999 0.005333333333333333 -0.021599999999999998 0.0162 -0.0324 0.021533333333333335 -0.4908666666666666 0.3128666666666666 -0.8738666666666666 0.9871999999999999 -1.5805333333333333 0.5664 -0.04313333333333333 -0.027 -0.08093333333333333 -0.04853333333333333 -0.12406666666666666 -0.08086666666666667 -0.2457333333333333 0.30133333333333334 -0.6093999999999999 0.4822 -0.998 0.49626666666666663 -0.0162 0.06473333333333334 -0.03773333333333333 0.12406666666666666 -0.05933333333333333 0.1888 -0.4477333333333333 1.2569333333333332 -1.7909333333333333 1.5859999999999999 -2.6917999999999997 2.3411999999999997 -2.416 1.9603333333333333 -4.255933333333333 4.538466666666666 -5.324333333333334 7.460533333333332 -1.7154666666666665 4.779466666666666 -1.3648 9.461866666666666 0.9331999999999999 13.9824 0.38153333333333334 0.7332666666666667 0.8236666666666667 1.4333333333333331 1.3216666666666665 2.0930666666666666 0.27146666666666663 0.3594 0.395 0.8091999999999999 0.34526666666666667 1.2568666666666666v0.0162c0 0.46933333333333327 0.356 0.7228666666666667 0.6419333333333332 1.0141333333333333 0.916 0.9900666666666667 1.9119333333333333 1.9029999999999998 2.977733333333333 2.7296 0.10786666666666667 0.07553333333333333 0.21573333333333333 0.15646666666666664 0.32366666666666666 0.23199999999999998 -0.08093333333333333 -2.147 -0.16366666666666665 -4.294 -0.24813333333333332 -6.441 -0.005399999999999999 0 -0.005399999999999999 -0.005399999999999999 -0.010799999999999999 -0.005399999999999999 -1.8664666666666667 -1.2245333333333333 -3.236666666666667 -2.788933333333333 -3.4740666666666664 -5.1193333333333335 -0.29666666666666663 -2.8752 0.9116666666666666 -5.000666666666667 3.2636666666666665 -6.548866666666666 0.010799999999999999 -0.005333333333333333 0.021599999999999998 -0.016133333333333333 0.03233333333333333 -0.021533333333333335 -0.0726 -1.4875999999999998 0.17959999999999998 -2.973133333333333 0.7390666666666666 -4.3533333333333335 1.7963333333333333 -4.6662 7.223199999999999 -7.730266666666666 11.6952 -6.6082 0.005866666666666667 -0.0007333333333333333 0.0118 0.0012 0.016133333333333333 0.005333333333333333 2.9669999999999996 0.48006666666666664 5.405266666666667 1.8340666666666667 7.153066666666666 4.320933333333333 1.4102 1.9143333333333334 2.106733333333333 4.261466666666666 1.9689999999999999 6.635199999999999 1.6830666666666665 1.2784666666666666 3.0424666666666664 2.7781333333333333 3.2636000000000003 4.995266666666666 0.2967333333333333 2.9830666666666663 -0.9763999999999999 5.162466666666666 -3.4848 6.6836666666666655v0.027c-0.08093333333333333 2.0606666666666666 -0.16720000000000002 4.121333333333333 -0.24813333333333332 6.1874 0.11866666666666666 -0.05393333333333333 0.23193333333333332 -0.10786666666666667 0.33986666666666665 -0.16720000000000002 0.6554 -0.3539333333333333 1.2522666666666666 -0.8069333333333333 1.7693333333333332 -1.3431333333333333Z" stroke-width="0.6667"></path>
  <path fill="#fe6b3c" d="M37.27746666666667 21.1236c1.8502666666666665 -0.9116666666666666 3.6466 -0.42079999999999995 5.4322 0.16720000000000002 0.06473333333333334 0.021599999999999998 0.13486666666666666 0.04313333333333333 0.1996 0.06473333333333334 0.13926666666666665 -2.3738666666666663 -0.5573999999999999 -4.721533333333333 -1.9689999999999999 -6.635133333333333 -1.7478 -2.486866666666667 -4.186066666666666 -3.840866666666667 -7.153 -4.321h-0.0162c-0.4423333333333333 0.08633333333333333 -0.9332666666666666 -0.09706666666666666 -1.4780666666666664 0.2158 3.6466 3.0532666666666666 4.148333333333333 6.9696 3.4308666666666667 11.2366 0.11326666666666665 -0.05393333333333333 0.22113333333333332 -0.10246666666666666 0.33440000000000003 -0.15639999999999998 0.4154 -0.1888 0.82 -0.3722 1.2191999999999998 -0.5718Z" stroke-width="0.6667"></path>
  <path fill="#fe6142" d="M46.178133333333335 26.3562c-0.22119999999999998 -2.217133333333333 -1.5805999999999998 -3.7167999999999997 -3.2636666666666665 -4.995266666666666 -0.06473333333333334 -0.021533333333333335 -0.13486666666666666 -0.04313333333333333 -0.19953333333333334 -0.06473333333333334 -1.791 -0.588 -3.5819333333333327 -1.0788666666666666 -5.432266666666667 -0.16720000000000002 -0.39913333333333334 0.1996 -0.8091333333333333 0.38839999999999997 -1.2137333333333333 0.5771999999999999 -0.11326666666666665 0.05393333333333333 -0.22113333333333332 0.10246666666666666 -0.3344666666666667 0.15646666666666664 -0.26966666666666667 0.30746666666666667 -0.5178666666666667 0.6419333333333332 -0.8091333333333333 0.9278 -1.7478 1.7046666666666666 -1.990533333333333 3.8138666666666663 -1.5266666666666666 6.0472 0.7067333333333333 3.4038666666666666 4.8604 6.235999999999999 9.273066666666665 4.218466666666666 0.005399999999999999 -0.005399999999999999 0.0162 -0.005399999999999999 0.021599999999999998 -0.010799999999999999 2.5084 -1.5265999999999997 3.786933333333333 -3.7114 3.4848 -6.6891333333333325Zm-6.5974 5.960866666666666c-2.069933333333333 -0.021866666666666666 -3.922533333333333 -1.2893333333333332 -4.692866666666666 -3.2106666666666666 -0.7704 -1.9213333333333333 -0.30666666666666664 -4.117533333333333 1.1747333333333332 -5.5634 1.4814 -1.4457999999999998 3.6882666666666664 -1.8560666666666665 5.590333333333334 -1.0392666666666666 1.9020000000000001 0.8168666666666666 3.1241333333333334 2.699733333333333 3.095666666666667 4.769533333333333 0.008666666666666666 1.362 -0.5371333333333332 2.6689333333333334 -1.5119333333333334 3.6203333333333334 -0.9747333333333332 0.9513333333333334 -2.2945333333333333 1.4651999999999998 -3.6559333333333335 1.4234666666666667Z" stroke-width="0.6667"></path>
  <path fill="#fe6143" d="M21.3046 21.37693333333333c-2.352 1.5481999999999998 -3.560333333333333 3.6735999999999995 -3.2636666666666665 6.548866666666666 0.2374 2.3304 1.6076 3.8948 3.4740666666666664 5.1193333333333335 0.005333333333333333 0 0.005333333333333333 0.005399999999999999 0.010799999999999999 0.005399999999999999 1.1019999999999999 0.34199999999999997 2.25 0.5129999999999999 3.4038666666666666 0.5070666666666667 4.024266666666667 -0.05933333333333333 7.061333333333334 -4.169933333333333 5.923133333333333 -8.064733333333333 -1.0951333333333333 -3.7383333333333333 -5.0762 -6.192799999999999 -9.505066666666666 -4.137533333333333 -0.015399999999999999 0.004933333333333333 -0.029933333333333333 0.012266666666666665 -0.04313333333333333 0.021599999999999998Zm3.215066666666667 10.939933333333332c-1.8425333333333331 0.023999999999999997 -3.5568666666666666 -0.9405333333333333 -4.492933333333333 -2.5278 -0.9360666666666666 -1.5872666666666666 -0.9504666666666666 -3.5542 -0.037866666666666667 -5.1550666666666665s2.6125999999999996 -2.5904666666666665 4.455333333333333 -2.5935333333333332c1.8501333333333332 -0.035666666666666666 3.5765999999999996 0.9261333333333333 4.5199333333333325 2.518133333333333s0.9578 3.5682666666666667 0.038 5.173933333333333c-0.9198666666666666 1.6057333333333332 -2.6319333333333335 2.5928 -4.482466666666666 2.5843333333333334Z" stroke-width="0.6667"></path>
  <path fill="#070909" d="M29.2178 39.4158c-0.1996 -0.1996 -0.3452 -0.46933333333333327 -0.6796666666666666 -0.4747333333333333 -0.06473333333333334 2.006733333333333 1.7693333333333332 4.132133333333333 3.576533333333333 4.1376 1.915 0.005333333333333333 3.5818666666666665 -1.8988666666666667 3.576533333333333 -4.083666666666666 -0.7228666666666667 0.37226666666666663 -1.1814 1.1382666666666665 -2.0121333333333333 1.3648 -1.6561333333333332 0.4531333333333333 -3.1773333333333333 0.33986666666666665 -4.461266666666667 -0.944Z" stroke-width="0.6667"></path>
  <path fill="#fdfcfb" d="M35.89086666666667 37.10713333333333c-1.2137333333333333 0.8900666666666666 -2.373533333333333 1.6506666666666665 -3.8623999999999996 1.6236666666666668 -1.4565333333333332 -0.02693333333333333 -2.5354 -0.9331999999999999 -3.8246666666666664 -1.812533333333333 0.1402 0.8308 0.2373333333333333 1.4241333333333333 0.33440000000000003 2.0229333333333335 0.3344666666666667 0.010799999999999999 0.4801333333333333 0.27513333333333334 0.6797333333333333 0.4747333333333333 1.2784666666666666 1.2838666666666665 2.805133333333333 1.3971333333333331 4.4612 0.944 0.8307333333333333 -0.2265333333333333 1.2892666666666666 -0.9871333333333332 2.0121333333333333 -1.3648 -0.19419999999999998 -0.6203333333333333 0.4585333333333333 -1.176 0.1996 -1.888Z" stroke-width="0.6667"></path>
  <path fill="#fea777" d="M27.761333333333333 13.905466666666666c-0.38166666666666665 -0.02946666666666667 -0.7584666666666666 0.1006 -1.0406666666666666 0.3592666666666667s-0.4444666666666666 0.6227333333333334 -0.4482 1.0055333333333332c0.0162 1.1004666666666667 0.6527333333333333 1.5805999999999998 1.4996666666666665 1.5697999999999999 0.7894666666666665 -0.007266666666666666 1.4276666666666666 -0.6454666666666666 1.4349333333333334 -1.4349333333333334 0.016133333333333333 -0.8415333333333332 -0.43699999999999994 -1.5211999999999999 -1.4457333333333333 -1.4996666666666665Z" stroke-width="0.6667"></path>
  <path fill="#fdfefe" d="M17.825133333333333 35.50513333333333c0.0498 -0.44766666666666666 -0.0738 -0.8974 -0.34526666666666667 -1.2568666666666666 -0.4961333333333333 -0.661 -0.9381333333333333 -1.360933333333333 -1.3215999999999999 -2.0930666666666666 -2.2980666666666663 -4.520533333333333 -2.6540666666666666 -9.202933333333332 -0.9332666666666666 -13.9824 1.0684 -2.9220666666666664 2.908333333333333 -5.5001999999999995 5.324333333333334 -7.460533333333332 0.9008666666666666 -0.7552 2.244133333333333 -1.0788666666666666 2.6918666666666664 -2.3411999999999997 0.023 -0.06186666666666666 0.04279999999999999 -0.12486666666666665 0.05933333333333333 -0.1888 -0.40459999999999996 -0.2643333333333333 -0.7390666666666666 -0.5826 -1.3216666666666665 -0.2265333333333333 -3.3894 2.0176666666666665 -6.069533333333333 5.037 -7.670933333333332 8.641866666666665 -1.3108 2.9184 -1.5913333333333333 5.9501333333333335 -1.4402666666666666 9.068066666666667 0.18819999999999998 3.4408666666666665 1.4039333333333333 6.7462 3.4901999999999997 9.488866666666667 0.3722 0.5070666666666667 0.8361333333333333 0.8253333333333333 1.4672666666666665 0.3668l0 -0.0162Z" stroke-width="0.6667"></path>
  <path fill="#fbfdfe" d="M25.99753333333333 7.206066666666667c0.010799999999999999 -0.005333333333333333 0.021599999999999998 -0.0162 0.0324 -0.021599999999999998 -0.010799999999999999 -0.8792599999999999 -0.4801333333333333 -1.5589733333333333 -1.3162666666666665 -1.3593866666666665 -0.8307333333333333 0.1996 -0.8145333333333333 1.0249866666666665 -0.46933333333333327 1.7477866666666666l0.048600000000000004 0.11333333333333334c0.039599999999999996 0.02946666666666667 0.08106666666666666 0.05653333333333333 0.12406666666666666 0.08086666666666667 0.7066666666666667 0.42619999999999997 1.0896666666666666 -0.25353333333333333 1.5805333333333333 -0.5609999999999999Z" stroke-width="0.6667"></path>
  <path fill="#fefefe" d="M44.74846666666666 27.278866666666666c0.03766666666666667 -1.3618 -0.477 -2.680933333333333 -1.4269999999999998 -3.657333333333333 -0.95 -0.9763999999999999 -2.2545333333333333 -1.5270666666666666 -3.6168 -1.526733333333333 -1.8324 -0.0304 -3.5409333333333333 0.9219333333333333 -4.478733333333333 2.4964 -0.9378 1.5744666666666665 -0.9615333333333332 3.530333333333333 -0.06219999999999999 5.127133333333333 0.8993333333333333 1.5967333333333331 2.5842666666666663 2.5902 4.4168 2.604333333333333 1.360933333333333 0.03986666666666666 2.6796666666666664 -0.4746666666666666 3.654 -1.4255999999999998s1.5206666666666666 -2.256733333333333 1.5139333333333334 -3.6182Zm-4.914333333333333 0.5609999999999999c-0.41846666666666665 0.04153333333333333 -0.8348666666666666 -0.09713333333333332 -1.1448 -0.3813333333333333 -0.3099333333333333 -0.28426666666666667 -0.4841333333333333 -0.6869999999999999 -0.4789333333333333 -1.1075333333333333 -0.027133333333333332 -0.438 0.13086666666666666 -0.8673333333333333 0.43553333333333333 -1.1831999999999998 0.3046 -0.3159333333333333 0.7278666666666667 -0.4894666666666666 1.1665999999999999 -0.4782666666666667 0.9493999999999999 0.07013333333333333 1.4834666666666667 0.6257333333333333 1.5967333333333331 1.6183333333333334 -0.12946666666666667 0.8846666666666666 -0.5826 1.5157999999999998 -1.575133333333333 1.532Z" stroke-width="0.6667"></path>
  <path fill="#fefefe" d="M24.4442 22.04553333333333c-1.8426666666666665 0.0031333333333333335 -3.5426666666666664 0.9927333333333334 -4.455266666666667 2.5936 -0.9126666666666666 1.6007999999999998 -0.8981999999999999 3.5678 0.037866666666666667 5.1550666666666665 0.9360666666666666 1.5872666666666666 2.6504 2.551733333333333 4.492933333333333 2.5278 1.8504666666666667 0.008466666666666666 3.5625999999999998 -0.9786666666666666 4.482466666666666 -2.5843333333333334 0.9198 -1.6056666666666666 0.9052666666666667 -3.5819333333333327 -0.038066666666666665 -5.173933333333333 -0.9433333333333334 -1.5919999999999999 -2.6697333333333333 -2.5538666666666665 -4.5199333333333325 -2.5181999999999998Zm0.005399999999999999 5.793666666666667c-0.4195333333333333 0.03846666666666666 -0.8355333333333334 -0.10386666666666666 -1.1435333333333333 -0.3913333333333333 -0.308 -0.2874 -0.47879999999999995 -0.6925333333333332 -0.46939999999999993 -1.1137333333333332 -0.0232 -0.43879999999999997 0.13979999999999998 -0.867 0.44899999999999995 -1.1792666666666665 0.3091333333333333 -0.3122 0.7357333333333332 -0.4794666666666666 1.1747333333333332 -0.4606666666666666 0.8817999999999999 0.012066666666666667 1.587 0.7365333333333333 1.5752 1.6183333333333334 -0.11873333333333333 0.9116666666666666 -0.615 1.5158666666666667 -1.5859999999999999 1.5266666666666666Z" stroke-width="0.6667"></path>
  <path fill="#090b0b" d="M39.812599999999996 24.689133333333334c-0.4392666666666667 -0.012933333333333333 -0.8636666666666667 0.15999999999999998 -1.1686666666666665 0.47633333333333333 -0.30506666666666665 0.3163333333333333 -0.46246666666666664 0.7466666666666667 -0.4335333333333333 1.1852 -0.006133333333333333 0.42079999999999995 0.16779999999999998 0.8241999999999999 0.4779333333333333 1.1086 0.3102 0.2844 0.7271333333333333 0.42279999999999995 1.1458 0.38026666666666664 0.9871999999999999 -0.0162 1.4457333333333333 -0.6473333333333333 1.5752 -1.5320666666666665 -0.11326666666666665 -0.9925333333333333 -0.6473333333333333 -1.5481999999999998 -1.5967333333333331 -1.6183333333333334Z" stroke-width="0.6667"></path>
  <path fill="#090c0c" d="M24.4602 24.6948c-0.43899999999999995 -0.018866666666666664 -0.8655333333333333 0.14839999999999998 -1.1747333333333332 0.4606666666666666 -0.3091333333333333 0.31226666666666664 -0.4722 0.7404666666666666 -0.44899999999999995 1.1792666666666665 -0.009333333333333332 0.42113333333333336 0.1614 0.8263333333333334 0.46939999999999993 1.1137333333333332 0.30806666666666666 0.2874 0.724 0.4297333333333333 1.1435333333333333 0.39126666666666665 0.9709999999999999 -0.010733333333333333 1.4673333333333334 -0.6149333333333333 1.5859999999999999 -1.5265999999999997 -0.09173333333333333 -0.998 -0.6419333333333332 -1.5428 -1.5752 -1.6183333333333334Z" stroke-width="0.6667"></path>
</svg>