<svg xmlns="http://www.w3.org/2000/svg" fill="none" viewBox="0 0 96 96" id="Apache-Camel--Streamline-Svg-Logos" height="64" width="64">
  <desc>
    Apache Camel Streamline Icon: https://streamlinehq.com
  </desc>
  <mask id="a" width="94" height="94" x="1" y="1" maskUnits="userSpaceOnUse" style="mask-type:luminance">
    <path fill="#ffffff" d="M48 95c25.9574 0 47-21.0426 47-47S73.9574 1 48 1 1 22.0426 1 48s21.0426 47 47 47Z"></path>
  </mask>
  <g mask="url(#a)">
    <path fill="url(#b)" d="M47.9981 93.2028c24.9658 0 45.2047-20.2389 45.2047-45.2047S72.9639 2.79346 47.9981 2.79346 2.79346 23.0323 2.79346 47.9981c0 24.9658 20.23884 45.2047 45.20464 45.2047Z"></path>
  </g>
  <mask id="c" width="94" height="94" x="1" y="1" maskUnits="userSpaceOnUse" style="mask-type:luminance">
    <path fill="#ffffff" d="M48 95c25.9574 0 47-21.0426 47-47S73.9574 1 48 1 1 22.0426 1 48s21.0426 47 47 47Z"></path>
  </mask>
  <g mask="url(#c)">
    <path fill="url(#d)" d="M48 95C22.0426 95 1 73.9574 1 48S22.0426 1 48 1s47 21.0426 47 47-21.0426 47-47 47Zm0-3.5867c23.9765 0 43.4133-19.4368 43.4133-43.4133C91.4133 24.0235 71.9765 4.58667 48 4.58667 24.0235 4.58667 4.58667 24.0235 4.58667 48S24.0235 91.4133 48 91.4133Z"></path>
  </g>
  <mask id="e" width="94" height="94" x="1" y="1" maskUnits="userSpaceOnUse" style="mask-type:luminance">
    <path fill="#ffffff" d="M48 95c25.9574 0 47-21.0426 47-47S73.9574 1 48 1 1 22.0426 1 48s21.0426 47 47 47Z"></path>
  </mask>
  <g mask="url(#e)">
    <path fill="url(#f)" d="M37.0007 28.7291c-.6429-.0007-1.2941.0036-1.9432.0225-.7547.0223-1.7685.2619-2.9374.6553 19.7456 14.9937 26.8444 42.042 14.6416 65.5482.4145.0107.8257.0452 1.2428.0452 22.3015 0 40.9387-15.5404 45.7549-36.3778-14.1521-16.5887-33.3452-29.8573-56.7587-29.8934Z" opacity=".75"></path>
  </g>
  <mask id="g" width="94" height="94" x="1" y="1" maskUnits="userSpaceOnUse" style="mask-type:luminance">
    <path fill="#ffffff" d="M48 95c25.9574 0 47-21.0426 47-47S73.9574 1 48 1 1 22.0426 1 48s21.0426 47 47 47Z"></path>
  </mask>
  <g mask="url(#g)">
    <path fill="#28170b" d="M32.1197 29.4087c-6.5567 2.2066-19.0652 9.9794-31.09089 20.358.91327 24.7244 20.94009 44.5445 45.73249 45.1902 12.2028-23.5062 5.1042-50.5545-14.6416-65.5482Z" opacity=".75"></path>
  </g>
  <mask id="h" width="94" height="94" x="1" y="1" maskUnits="userSpaceOnUse" style="mask-type:luminance">
    <path fill="#ffffff" d="M48 95c25.9574 0 47-21.0426 47-47S73.9574 1 48 1 1 22.0426 1 48s21.0426 47 47 47Z"></path>
  </mask>
  <g mask="url(#h)">
    <path fill="#ffffff" d="M48.2749 20.8297c-4.0335 2.0179 0 10.0852 0 10.0852-12.1073 10.0917-9.5348 27.3295-23.6599 27.3295-7.7 0-15.51077-8.8407-23.58541-14.2572-.103954 1.2774-.288379 2.5602-.288379 3.8644 0 17.6599 9.643389 33.0191 24.021289 41.0873 4.0217-.5066 8.3861-1.5108 11.4015-3.5223 15.8424-10.5621 19.7757-30.6568 26.2489-40.3631 4.0314-6.0556 22.9251-5.5302 24.2002-8.0818 2.02-4.0357-4.0356-10.0852-6.0556-10.0852H64.4169c-1.1278 0-2.8998-2.0035-4.0297-2.0035h-6.0555s-2.6831-4.0703-5.0651-4.2322c-.3415-.0243-.6722.0193-.9917.1789Z"></path>
  </g>
  <defs>
    <linearGradient id="b" x1="-1133.09" x2="9161.62" y1="9786.39" y2="-174.788" gradientUnits="userSpaceOnUse">
      <stop stop-color="#f69923"></stop>
      <stop offset=".11" stop-color="#f79a23"></stop>
      <stop offset=".945" stop-color="#e97826"></stop>
    </linearGradient>
    <linearGradient id="d" x1="-1180" x2="9523.58" y1="10173.2" y2="-183.633" gradientUnits="userSpaceOnUse">
      <stop stop-color="#f69923"></stop>
      <stop offset=".08" stop-color="#f79a23"></stop>
      <stop offset=".419" stop-color="#e97826"></stop>
    </linearGradient>
    <linearGradient id="f" x1="4638.06" x2="7.055" y1="-174.005" y2="6351.38" gradientUnits="userSpaceOnUse">
      <stop stop-color="#f6e423"></stop>
      <stop offset=".412" stop-color="#f79a23"></stop>
      <stop offset=".733" stop-color="#e97826"></stop>
    </linearGradient>
  </defs>
</svg>