<svg width="400" height="72" viewBox="0 0 400 72" fill="none"
    xmlns="http://www.w3.org/2000/svg">
    <g clip-path="url(#clip0_1_32)">
        <path
            d="M192.76 69L172.096 46.104V69H165.544V18.816H172.096V42.072L192.832 18.816H201.112L178.36 43.944L201.328 69H192.76ZM243.638 29.544V69H237.086V63.168C235.838 65.184 234.086 66.768 231.83 67.92C229.622 69.024 227.174 69.576 224.486 69.576C221.414 69.576 218.654 68.952 216.206 67.704C213.758 66.408 211.814 64.488 210.374 61.944C208.982 59.4 208.286 56.304 208.286 52.656V29.544H214.766V51.792C214.766 55.68 215.75 58.68 217.718 60.792C219.686 62.856 222.374 63.888 225.782 63.888C229.286 63.888 232.046 62.808 234.062 60.648C236.078 58.488 237.086 55.344 237.086 51.216V29.544H243.638ZM302.148 28.824C305.22 28.824 307.956 29.472 310.356 30.768C312.756 32.016 314.652 33.912 316.044 36.456C317.436 39 318.132 42.096 318.132 45.744V69H311.652V46.68C311.652 42.744 310.668 39.744 308.7 37.68C306.78 35.568 304.164 34.512 300.852 34.512C297.444 34.512 294.732 35.616 292.716 37.824C290.7 39.984 289.692 43.128 289.692 47.256V69H283.212V46.68C283.212 42.744 282.228 39.744 280.26 37.68C278.34 35.568 275.724 34.512 272.412 34.512C269.004 34.512 266.292 35.616 264.276 37.824C262.26 39.984 261.252 43.128 261.252 47.256V69H254.7V29.544H261.252V35.232C262.548 33.168 264.276 31.584 266.436 30.48C268.644 29.376 271.068 28.824 273.708 28.824C277.02 28.824 279.948 29.568 282.492 31.056C285.036 32.544 286.932 34.728 288.18 37.608C289.284 34.824 291.108 32.664 293.652 31.128C296.196 29.592 299.028 28.824 302.148 28.824ZM326.432 49.128C326.432 45.096 327.248 41.568 328.88 38.544C330.512 35.472 332.744 33.096 335.576 31.416C338.456 29.736 341.648 28.896 345.152 28.896C348.608 28.896 351.608 29.64 354.152 31.128C356.696 32.616 358.592 34.488 359.84 36.744V29.544H366.464V69H359.84V61.656C358.544 63.96 356.6 65.88 354.008 67.416C351.464 68.904 348.488 69.648 345.08 69.648C341.576 69.648 338.408 68.784 335.576 67.056C332.744 65.328 330.512 62.904 328.88 59.784C327.248 56.664 326.432 53.112 326.432 49.128ZM359.84 49.2C359.84 46.224 359.24 43.632 358.04 41.424C356.84 39.216 355.208 37.536 353.144 36.384C351.128 35.184 348.896 34.584 346.448 34.584C344 34.584 341.768 35.16 339.752 36.312C337.736 37.464 336.128 39.144 334.928 41.352C333.728 43.56 333.128 46.152 333.128 49.128C333.128 52.152 333.728 54.792 334.928 57.048C336.128 59.256 337.736 60.96 339.752 62.16C341.768 63.312 344 63.888 346.448 63.888C348.896 63.888 351.128 63.312 353.144 62.16C355.208 60.96 356.84 59.256 358.04 57.048C359.24 54.792 359.84 52.176 359.84 49.2ZM384.088 35.952C385.24 33.696 386.872 31.944 388.984 30.696C391.144 29.448 393.76 28.824 396.832 28.824V35.592H395.104C387.76 35.592 384.088 39.576 384.088 47.544V69H377.536V29.544H384.088V35.952Z"
            fill="#3880F3" />
        <path
            d="M27.72 42.864C30.648 43.392 33.096 44.832 35.064 47.184C37.08 49.536 38.088 52.296 38.088 55.464C38.088 58.056 37.464 60.384 36.216 62.448C35.016 64.464 33.192 66.072 30.744 67.272C28.344 68.424 25.416 69 21.96 69H5.904V18.456H21.672C26.712 18.456 30.504 19.632 33.048 21.984C35.64 24.288 36.936 27.288 36.936 30.984C36.936 34.2 36.072 36.816 34.344 38.832C32.616 40.8 30.408 42.144 27.72 42.864ZM9.144 41.424H21.816C25.608 41.424 28.512 40.536 30.528 38.76C32.592 36.936 33.624 34.44 33.624 31.272C33.624 28.2 32.616 25.776 30.6 24C28.584 22.224 25.536 21.336 21.456 21.336H9.144V41.424ZM21.744 66.192C25.824 66.192 29.016 65.232 31.32 63.312C33.672 61.344 34.848 58.656 34.848 55.248C34.848 51.888 33.648 49.224 31.248 47.256C28.896 45.24 25.656 44.232 21.528 44.232H9.144V66.192H21.744ZM49.2553 21.192C48.4873 21.192 47.8393 20.952 47.3113 20.472C46.7833 19.944 46.5193 19.248 46.5193 18.384C46.5193 17.568 46.7833 16.896 47.3113 16.368C47.8393 15.84 48.4873 15.576 49.2553 15.576C50.0233 15.576 50.6713 15.84 51.1993 16.368C51.7273 16.896 51.9913 17.568 51.9913 18.384C51.9913 19.248 51.7273 19.944 51.1993 20.472C50.6713 20.952 50.0233 21.192 49.2553 21.192ZM50.8393 29.904V69H47.5993V29.904H50.8393ZM80.3565 29.112C85.0125 29.112 88.8045 30.552 91.7325 33.432C94.6605 36.264 96.1245 40.488 96.1245 46.104V69H92.9565V46.32C92.9565 41.664 91.7805 38.112 89.4285 35.664C87.0765 33.168 83.8845 31.92 79.8525 31.92C75.6285 31.92 72.2445 33.264 69.7005 35.952C67.2045 38.64 65.9565 42.624 65.9565 47.904V69H62.7165V29.904H65.9565V38.184C67.0605 35.256 68.8845 33.024 71.4285 31.488C74.0205 29.904 76.9965 29.112 80.3565 29.112ZM109.232 21.192C108.464 21.192 107.816 20.952 107.288 20.472C106.76 19.944 106.496 19.248 106.496 18.384C106.496 17.568 106.76 16.896 107.288 16.368C107.816 15.84 108.464 15.576 109.232 15.576C110 15.576 110.648 15.84 111.176 16.368C111.704 16.896 111.968 17.568 111.968 18.384C111.968 19.248 111.704 19.944 111.176 20.472C110.648 20.952 110 21.192 109.232 21.192ZM110.816 29.904V69H107.576V29.904H110.816ZM127.517 32.712V58.56C127.517 61.44 128.045 63.432 129.101 64.536C130.157 65.592 132.029 66.12 134.717 66.12H139.109V69H134.213C130.805 69 128.285 68.208 126.653 66.624C125.069 64.992 124.277 62.304 124.277 58.56V32.712H118.373V29.904H124.277V19.968H127.517V29.904H139.109V32.712H127.517Z"
            fill="#6AD539" />
    </g>
    <defs>
        <clipPath id="clip0_1_32">
            <rect width="400" height="72" fill="white" />
        </clipPath>
    </defs>
</svg>